<?xml version="1.0" encoding="UTF-8"?>
<svg width="700pt" height="700pt" version="1.1" viewBox="0 0 700 700" xmlns="http://www.w3.org/2000/svg" xmlns:xlink="http://www.w3.org/1999/xlink">
 <defs>
  <symbol id="v" overflow="visible">
   <path d="m2.7812-0.17188c-0.14844 0.074219-0.29688 0.13281-0.45312 0.17188-0.14844 0.039062-0.30859 0.0625-0.48438 0.0625-0.5 0-0.90234-0.14062-1.2031-0.42188-0.29297-0.28125-0.4375-0.66406-0.4375-1.1562 0-0.47656 0.14453-0.85938 0.4375-1.1406 0.30078-0.28125 0.70312-0.42188 1.2031-0.42188 0.17578 0 0.33594 0.023437 0.48438 0.0625 0.15625 0.03125 0.30469 0.085937 0.45312 0.15625v0.625c-0.14844-0.09375-0.29297-0.16016-0.4375-0.20312-0.13672-0.050781-0.28125-0.078125-0.4375-0.078125-0.27344 0-0.49219 0.089844-0.65625 0.26562-0.15625 0.17969-0.23438 0.42188-0.23438 0.73438s0.078125 0.5625 0.23438 0.75c0.16406 0.17969 0.38281 0.26562 0.65625 0.26562 0.15625 0 0.30078-0.019531 0.4375-0.0625 0.14453-0.050781 0.28906-0.12891 0.4375-0.23438z"/>
  </symbol>
  <symbol id="b" overflow="visible">
   <path d="m2.0312-1.6562c-0.0625-0.03125-0.125-0.050781-0.1875-0.0625-0.0625-0.007812-0.125-0.015625-0.1875-0.015625-0.1875 0-0.33594 0.0625-0.4375 0.1875-0.09375 0.11719-0.14062 0.28125-0.14062 0.5v1.0469h-0.73438v-2.2656h0.73438v0.35938c0.09375-0.14453 0.19531-0.25 0.3125-0.3125 0.125-0.070312 0.26953-0.10938 0.4375-0.10938h0.078125c0.03125 0 0.070312 0.007813 0.125 0.015625z"/>
  </symbol>
  <symbol id="a" overflow="visible">
   <path d="m2.625-1.1406v0.20312h-1.7031c0.019531 0.16797 0.082031 0.29688 0.1875 0.39062 0.10156 0.085937 0.25 0.125 0.4375 0.125 0.15625 0 0.3125-0.019531 0.46875-0.0625 0.15625-0.050781 0.32031-0.125 0.5-0.21875v0.5625c-0.17969 0.0625-0.35547 0.10938-0.53125 0.14062-0.16797 0.039062-0.33594 0.0625-0.5 0.0625-0.41797 0-0.74219-0.10156-0.96875-0.3125-0.23047-0.20703-0.34375-0.50391-0.34375-0.89062 0-0.36328 0.10938-0.64844 0.32812-0.85938 0.22656-0.21875 0.53906-0.32812 0.9375-0.32812 0.35156 0 0.64062 0.10938 0.85938 0.32812 0.21875 0.21094 0.32812 0.49609 0.32812 0.85938zm-0.75-0.25c0-0.13281-0.042969-0.24219-0.125-0.32812-0.085938-0.082031-0.1875-0.125-0.3125-0.125-0.14844 0-0.26562 0.042969-0.35938 0.125-0.085937 0.074219-0.13672 0.18359-0.15625 0.32812z"/>
  </symbol>
  <symbol id="e" overflow="visible">
   <path d="m1.375-1.0156c-0.15625 0-0.27734 0.027344-0.35938 0.078125-0.074219 0.042969-0.10938 0.11719-0.10938 0.21875 0 0.09375 0.03125 0.16797 0.09375 0.21875 0.0625 0.054688 0.14844 0.078125 0.26562 0.078125 0.13281 0 0.25-0.046875 0.34375-0.14062 0.09375-0.10156 0.14062-0.22656 0.14062-0.375v-0.078125zm1.1094-0.28125v1.2969h-0.73438v-0.34375c-0.10547 0.14844-0.21875 0.25-0.34375 0.3125-0.11719 0.0625-0.26172 0.09375-0.4375 0.09375-0.23047 0-0.42188-0.066406-0.57812-0.20312-0.14844-0.14453-0.21875-0.32812-0.21875-0.54688 0-0.25781 0.09375-0.45312 0.28125-0.57812s0.47266-0.1875 0.85938-0.1875h0.4375v-0.0625c0-0.11328-0.046875-0.19531-0.14062-0.25-0.09375-0.050781-0.23438-0.078125-0.42188-0.078125-0.15625 0-0.30469 0.015625-0.4375 0.046875-0.13672 0.03125-0.26172 0.078125-0.375 0.14062v-0.5625c0.15625-0.03125 0.3125-0.054688 0.46875-0.078125 0.15625-0.019531 0.3125-0.03125 0.46875-0.03125 0.41406 0 0.71094 0.085937 0.89062 0.25 0.1875 0.15625 0.28125 0.41797 0.28125 0.78125z"/>
  </symbol>
  <symbol id="d" overflow="visible">
   <path d="m1.1406-2.9219v0.65625h0.75v0.51562h-0.75v0.95312c0 0.11719 0.019531 0.19531 0.0625 0.23438 0.039063 0.03125 0.125 0.046875 0.25 0.046875h0.375v0.51562h-0.625c-0.28125 0-0.48438-0.054688-0.60938-0.17188-0.11719-0.125-0.17188-0.33203-0.17188-0.625v-0.95312h-0.35938v-0.51562h0.35938v-0.65625z"/>
  </symbol>
  <symbol id="f" overflow="visible">
   <path d="m1.8906-1.9375v-1.2188h0.73438v3.1562h-0.73438v-0.32812c-0.09375 0.13672-0.20312 0.23438-0.32812 0.29688-0.11719 0.0625-0.25781 0.09375-0.42188 0.09375-0.28125 0-0.51172-0.10938-0.6875-0.32812-0.17969-0.22656-0.26562-0.51953-0.26562-0.875 0-0.34375 0.085938-0.625 0.26562-0.84375 0.17578-0.22656 0.40625-0.34375 0.6875-0.34375 0.15625 0 0.29688 0.03125 0.42188 0.09375s0.23438 0.16406 0.32812 0.29688zm-0.46875 1.4688c0.15625 0 0.26953-0.054688 0.34375-0.17188 0.082031-0.11328 0.125-0.28125 0.125-0.5 0-0.20703-0.042969-0.36719-0.125-0.48438-0.074219-0.11328-0.1875-0.17188-0.34375-0.17188s-0.27734 0.058594-0.35938 0.17188c-0.085938 0.11719-0.125 0.27734-0.125 0.48438 0 0.21875 0.039062 0.38672 0.125 0.5 0.082031 0.11719 0.20312 0.17188 0.35938 0.17188z"/>
  </symbol>
  <symbol id="m" overflow="visible">
   <path d="m1.5625-0.46875c0.15625 0 0.26953-0.054688 0.34375-0.17188 0.082031-0.11328 0.125-0.28125 0.125-0.5 0-0.20703-0.042969-0.36719-0.125-0.48438-0.074219-0.11328-0.1875-0.17188-0.34375-0.17188s-0.27734 0.058594-0.35938 0.17188c-0.085937 0.11719-0.125 0.27734-0.125 0.48438 0 0.21875 0.039063 0.38672 0.125 0.5 0.082031 0.11719 0.20312 0.17188 0.35938 0.17188zm-0.48438-1.4688c0.09375-0.13281 0.20312-0.23438 0.32812-0.29688s0.26562-0.09375 0.42188-0.09375c0.28125 0 0.50781 0.11719 0.6875 0.34375 0.17578 0.21875 0.26562 0.5 0.26562 0.84375 0 0.35547-0.089844 0.64844-0.26562 0.875-0.17969 0.21875-0.40625 0.32812-0.6875 0.32812-0.15625 0-0.29688-0.03125-0.42188-0.09375s-0.23438-0.16016-0.32812-0.29688v0.32812h-0.73438v-3.1562h0.73438z"/>
  </symbol>
  <symbol id="l" overflow="visible">
   <path d="m0.046875-2.2656h0.73438l0.60938 1.5312 0.51562-1.5312h0.73438l-0.96875 2.4844c-0.09375 0.25-0.20312 0.42188-0.32812 0.51562-0.125 0.10156-0.29297 0.15625-0.5 0.15625h-0.42188v-0.46875h0.21875c0.125 0 0.21094-0.023437 0.26562-0.0625 0.0625-0.042969 0.10938-0.10938 0.14062-0.20312l0.015625-0.0625z"/>
  </symbol>
  <symbol id="k" overflow="visible">
   <path d="m2.125-2.2031v0.54688c-0.15625-0.0625-0.30859-0.10938-0.45312-0.14062-0.14844-0.03125-0.28125-0.046875-0.40625-0.046875-0.13672 0-0.24219 0.023438-0.3125 0.0625-0.0625 0.03125-0.09375 0.078125-0.09375 0.14062s0.023437 0.10938 0.078125 0.14062c0.050781 0.03125 0.14062 0.054688 0.26562 0.0625l0.125 0.03125c0.375 0.042969 0.625 0.12109 0.75 0.23438 0.13281 0.10547 0.20312 0.27344 0.20312 0.5 0 0.24219-0.09375 0.42188-0.28125 0.54688-0.17969 0.125-0.44531 0.1875-0.79688 0.1875-0.14844 0-0.30469-0.015625-0.46875-0.046875-0.15625-0.019531-0.32031-0.050781-0.48438-0.09375v-0.5625c0.14453 0.074219 0.28906 0.13281 0.4375 0.17188 0.15625 0.03125 0.3125 0.046875 0.46875 0.046875 0.14453 0 0.25391-0.019531 0.32812-0.0625 0.070313-0.039063 0.10938-0.097656 0.10938-0.17188 0-0.0625-0.027344-0.10938-0.078125-0.14062-0.054687-0.03125-0.15234-0.054687-0.29688-0.078125l-0.125-0.015625c-0.32422-0.039063-0.55469-0.11328-0.6875-0.21875-0.125-0.11328-0.1875-0.28516-0.1875-0.51562 0-0.23828 0.078125-0.41406 0.23438-0.53125 0.16406-0.11328 0.42188-0.17188 0.76562-0.17188 0.13281 0 0.27344 0.011719 0.42188 0.03125 0.14453 0.023437 0.30469 0.054687 0.48438 0.09375z"/>
  </symbol>
  <symbol id="j" overflow="visible">
   <path d="m2.1875-2.2031v0.59375c-0.10547-0.0625-0.21094-0.10938-0.3125-0.14062-0.09375-0.039062-0.19531-0.0625-0.29688-0.0625-0.19922 0-0.35547 0.0625-0.46875 0.1875-0.11719 0.11719-0.17188 0.27734-0.17188 0.48438 0 0.21875 0.054688 0.39062 0.17188 0.51562 0.11328 0.11719 0.26953 0.17188 0.46875 0.17188 0.11328 0 0.22266-0.015625 0.32812-0.046875 0.10156-0.039062 0.19531-0.09375 0.28125-0.15625v0.59375c-0.11719 0.042969-0.23047 0.070312-0.34375 0.09375-0.11719 0.019531-0.23438 0.03125-0.35938 0.03125-0.40625 0-0.73047-0.10156-0.96875-0.3125-0.23047-0.21875-0.34375-0.51562-0.34375-0.89062s0.11328-0.66406 0.34375-0.875c0.23828-0.20703 0.5625-0.3125 0.96875-0.3125 0.125 0 0.24219 0.011719 0.35938 0.03125 0.11328 0.023437 0.22656 0.054687 0.34375 0.09375z"/>
  </symbol>
  <symbol id="i" overflow="visible">
   <path d="m2.6406-1.3906v1.3906h-0.73438v-1.0625c0-0.19531-0.007812-0.33203-0.015625-0.40625-0.011719-0.070312-0.027344-0.125-0.046875-0.15625-0.03125-0.050781-0.074219-0.085938-0.125-0.10938-0.042969-0.03125-0.09375-0.046875-0.15625-0.046875-0.15625 0-0.27734 0.0625-0.35938 0.1875-0.085937 0.11719-0.125 0.27344-0.125 0.46875v1.125h-0.73438v-3.1562h0.73438v1.2188c0.10156-0.13281 0.21875-0.23438 0.34375-0.29688s0.25781-0.09375 0.40625-0.09375c0.25781 0 0.45703 0.085937 0.59375 0.25 0.14453 0.15625 0.21875 0.38672 0.21875 0.6875z"/>
  </symbol>
  <symbol id="u" overflow="visible">
   <path d="m0.34375-2.2656h0.73438v2.2656h-0.73438zm0-0.89062h0.73438v0.59375h-0.73438z"/>
  </symbol>
  <symbol id="h" overflow="visible">
   <path d="m2.6406-1.3906v1.3906h-0.73438v-1.0625c0-0.19531-0.007812-0.33203-0.015625-0.40625-0.011719-0.070312-0.027344-0.125-0.046875-0.15625-0.03125-0.050781-0.074219-0.085938-0.125-0.10938-0.042969-0.03125-0.09375-0.046875-0.15625-0.046875-0.15625 0-0.27734 0.0625-0.35938 0.1875-0.085937 0.11719-0.125 0.27344-0.125 0.46875v1.125h-0.73438v-2.2656h0.73438v0.32812c0.10156-0.13281 0.21875-0.23438 0.34375-0.29688s0.25781-0.09375 0.40625-0.09375c0.25781 0 0.45703 0.085937 0.59375 0.25 0.14453 0.15625 0.21875 0.38672 0.21875 0.6875z"/>
  </symbol>
  <symbol id="g" overflow="visible">
   <path d="m2.4531-1.8906c0.09375-0.14453 0.20312-0.25391 0.32812-0.32812 0.125-0.070312 0.26562-0.10938 0.42188-0.10938 0.25781 0 0.45703 0.085937 0.59375 0.25 0.13281 0.15625 0.20312 0.38672 0.20312 0.6875v1.3906h-0.73438v-1.1875c0.007813-0.019531 0.015625-0.035156 0.015625-0.046875v-0.09375c0-0.15625-0.027344-0.26953-0.078125-0.34375-0.042969-0.070313-0.12109-0.10938-0.23438-0.10938-0.13672 0-0.24219 0.058594-0.3125 0.17188-0.074219 0.11719-0.11719 0.28125-0.125 0.5v1.1094h-0.71875v-1.1875c0-0.25-0.027344-0.41016-0.078125-0.48438-0.042969-0.070313-0.11719-0.10938-0.21875-0.10938-0.14844 0-0.25781 0.058594-0.32812 0.17188-0.074219 0.11719-0.10938 0.27734-0.10938 0.48438v1.125h-0.73438v-2.2656h0.73438v0.32812c0.082031-0.13281 0.17969-0.23438 0.29688-0.29688 0.125-0.0625 0.25391-0.09375 0.39062-0.09375 0.15625 0 0.28906 0.042969 0.40625 0.125 0.125 0.074219 0.21875 0.17969 0.28125 0.3125z"/>
  </symbol>
  <symbol id="c" overflow="visible">
   <path d="m1.4375-1.8125c-0.16797 0-0.29297 0.058594-0.375 0.17188-0.085938 0.11719-0.125 0.28125-0.125 0.5s0.039062 0.39062 0.125 0.51562c0.082031 0.11719 0.20703 0.17188 0.375 0.17188 0.15625 0 0.27344-0.054687 0.35938-0.17188 0.082031-0.125 0.125-0.29688 0.125-0.51562s-0.042969-0.38281-0.125-0.5c-0.085937-0.11328-0.20312-0.17188-0.35938-0.17188zm0-0.51562c0.38281 0 0.6875 0.10938 0.90625 0.32812 0.21875 0.21094 0.32812 0.49609 0.32812 0.85938 0 0.375-0.10938 0.67188-0.32812 0.89062-0.21875 0.21094-0.52344 0.3125-0.90625 0.3125-0.39844 0-0.71094-0.10156-0.9375-0.3125-0.21875-0.21875-0.32812-0.51562-0.32812-0.89062 0-0.36328 0.10938-0.64844 0.32812-0.85938 0.22656-0.21875 0.53906-0.32812 0.9375-0.32812z"/>
  </symbol>
  <symbol id="t" overflow="visible">
   <path d="m1.8906-0.39062c-0.09375 0.13672-0.20312 0.23438-0.32812 0.29688-0.11719 0.0625-0.25781 0.09375-0.42188 0.09375-0.27344 0-0.5-0.10938-0.6875-0.32812-0.17969-0.21875-0.26562-0.49219-0.26562-0.82812 0-0.34375 0.085938-0.625 0.26562-0.84375 0.1875-0.21875 0.41406-0.32812 0.6875-0.32812 0.16406 0 0.30469 0.03125 0.42188 0.09375 0.125 0.0625 0.23438 0.16406 0.32812 0.29688v-0.32812h0.73438v2.0312c0 0.36328-0.11719 0.64062-0.34375 0.82812-0.23047 0.19531-0.5625 0.29688-1 0.29688-0.14844 0-0.28906-0.011719-0.42188-0.03125-0.125-0.023437-0.25781-0.054687-0.39062-0.09375v-0.5625c0.125 0.070313 0.24219 0.125 0.35938 0.15625 0.125 0.039063 0.25 0.0625 0.375 0.0625 0.23828 0 0.41016-0.054687 0.51562-0.15625 0.11328-0.10547 0.17188-0.26953 0.17188-0.5zm-0.46875-1.4062c-0.15625 0-0.27734 0.058594-0.35938 0.17188-0.085938 0.10547-0.125 0.26172-0.125 0.46875 0 0.21094 0.039062 0.36719 0.125 0.46875 0.082031 0.10547 0.20312 0.15625 0.35938 0.15625 0.14453 0 0.25781-0.050781 0.34375-0.15625 0.082031-0.11328 0.125-0.26953 0.125-0.46875 0-0.20703-0.042969-0.36328-0.125-0.46875-0.085937-0.11328-0.19922-0.17188-0.34375-0.17188z"/>
  </symbol>
  <symbol id="s" overflow="visible">
   <path d="m0.34375-3.1562h0.73438v1.7188l0.82812-0.82812h0.84375l-1.1094 1.0312 1.2031 1.2344h-0.875l-0.89062-0.95312v0.95312h-0.73438z"/>
  </symbol>
  <symbol id="r" overflow="visible">
   <path d="m1.8438-3.1562v0.46875h-0.40625c-0.10547 0-0.17969 0.023438-0.21875 0.0625-0.03125 0.042969-0.046875 0.10547-0.046875 0.1875v0.17188h0.60938v0.51562h-0.60938v1.75h-0.73438v-1.75h-0.35938v-0.51562h0.35938v-0.17188c0-0.23828 0.066406-0.41406 0.20312-0.53125 0.14453-0.125 0.35938-0.1875 0.64062-0.1875z"/>
  </symbol>
  <symbol id="q" overflow="visible">
   <path d="m0.375-3.0312h0.875l1.1094 2.0781v-2.0781h0.73438v3.0312h-0.875l-1.0938-2.0781v2.0781h-0.75z"/>
  </symbol>
  <symbol id="p" overflow="visible">
   <path d="m0.32812-0.89062v-1.375h0.73438v0.21875c0 0.125-0.007812 0.28125-0.015625 0.46875v0.375c0 0.17969 0.003906 0.30859 0.015625 0.39062 0.007812 0.085938 0.023438 0.14062 0.046875 0.17188 0.03125 0.054687 0.066406 0.09375 0.10938 0.125 0.050781 0.023437 0.10938 0.03125 0.17188 0.03125 0.15625 0 0.27344-0.054687 0.35938-0.17188 0.09375-0.125 0.14062-0.28906 0.14062-0.5v-1.1094h0.71875v2.2656h-0.71875v-0.32812c-0.11719 0.13672-0.23438 0.23438-0.35938 0.29688-0.11719 0.0625-0.25 0.09375-0.40625 0.09375-0.26172 0-0.46094-0.078125-0.59375-0.23438-0.13672-0.16406-0.20312-0.40625-0.20312-0.71875z"/>
  </symbol>
  <symbol id="o" overflow="visible">
   <path d="m0.375-3.0312h1.2969c0.38281 0 0.67969 0.089844 0.89062 0.26562 0.20703 0.16797 0.3125 0.40625 0.3125 0.71875 0 0.32422-0.10547 0.57422-0.3125 0.75-0.21094 0.16797-0.50781 0.25-0.89062 0.25h-0.51562v1.0469h-0.78125zm0.78125 0.5625v0.84375h0.4375c0.15625 0 0.26953-0.035156 0.34375-0.10938 0.082031-0.070313 0.125-0.17578 0.125-0.3125 0-0.13281-0.042969-0.23828-0.125-0.3125-0.074219-0.070313-0.1875-0.10938-0.34375-0.10938z"/>
  </symbol>
  <symbol id="n" overflow="visible">
   <path d="m0.34375-2.2656h0.73438v2.2188c0 0.3125-0.074219 0.54688-0.21875 0.70312-0.14844 0.15625-0.35938 0.23438-0.64062 0.23438h-0.35938v-0.46875h0.125c0.13281 0 0.22656-0.03125 0.28125-0.09375 0.050781-0.0625 0.078125-0.1875 0.078125-0.375zm0-0.89062h0.73438v0.59375h-0.73438z"/>
  </symbol>
 </defs>
 <g>
  <path d="m451.77 80.891h-202.97c-58.465 0-106.03 47.566-106.03 106.03v202.96c0 58.457 47.562 106.02 106.03 106.02h202.97c58.453 0 106.02-47.562 106.02-106.02v-202.97c0-58.457-47.562-106.02-106.02-106.02zm-130.37 342.46c-4.1875 4.0547-10.258 7.6211-18.207 10.707-7.9492 3.082-16 4.625-24.148 4.625-10.359 0-19.383-2.1719-27.086-6.5156-7.6992-4.3477-13.488-10.562-17.363-18.645-3.875-8.0859-5.8086-16.875-5.8086-26.379 0-10.309 2.1602-19.473 6.4844-27.492 4.3242-8.0117 10.652-14.16 18.984-18.441 6.3516-3.2852 14.25-4.9297 23.707-4.9297 12.293 0 21.895 2.5781 28.805 7.7344 6.918 5.1602 11.359 12.285 13.34 21.379l-19.855 3.7148c-1.3945-4.8633-4.0234-8.7031-7.8672-11.516-3.8516-2.8164-8.6562-4.2227-14.422-4.2227-8.7383 0-15.68 2.7695-20.836 8.3086-5.1523 5.5391-7.7305 13.758-7.7305 24.652 0 11.754 2.6094 20.57 7.8359 26.441 5.2188 5.8789 12.066 8.8164 20.535 8.8164 4.1875 0 8.3867-0.82031 12.594-2.4688 4.2109-1.6445 7.8242-3.6328 10.84-5.9766v-12.566h-22.895v-16.672h43.094zm37.824 13.645h-19.992v-99.02h19.992zm87.062-82.27h-47.887v23.438h41.336v16.75h-41.336v42.082h-19.992v-99.02h67.879zm81.203-89.484c-14.402 6.168-30.25 9.5938-46.879 9.5938-65.848 0-119.42-53.57-119.42-119.42 0-15.625 3.0273-30.555 8.5039-44.242h82.07c41.75 0 75.727 33.977 75.727 75.734z"/>
  <use y="548.078125" xlink:href="#v"/>
  <use x="3.050781" y="548.078125" xlink:href="#b"/>
  <use x="5.101562" y="548.078125" xlink:href="#a"/>
  <use x="7.921875" y="548.078125" xlink:href="#e"/>
  <use x="10.726562" y="548.078125" xlink:href="#d"/>
  <use x="12.714844" y="548.078125" xlink:href="#a"/>
  <use x="15.53125" y="548.078125" xlink:href="#f"/>
  <use x="19.957031" y="548.078125" xlink:href="#m"/>
  <use x="22.933594" y="548.078125" xlink:href="#l"/>
  <use x="27.089844" y="548.078125" xlink:href="#k"/>
  <use x="29.5625" y="548.078125" xlink:href="#e"/>
  <use x="32.371094" y="548.078125" xlink:href="#j"/>
  <use x="34.832031" y="548.078125" xlink:href="#i"/>
  <use x="37.792969" y="548.078125" xlink:href="#u"/>
  <use x="39.21875" y="548.078125" xlink:href="#h"/>
  <use x="43.625" y="548.078125" xlink:href="#g"/>
  <use x="47.957031" y="548.078125" xlink:href="#c"/>
  <use x="50.8125" y="548.078125" xlink:href="#f"/>
  <use x="53.789062" y="548.078125" xlink:href="#t"/>
  <use x="56.765625" y="548.078125" xlink:href="#a"/>
  <use x="59.585938" y="548.078125" xlink:href="#s"/>
  <use x="62.347656" y="548.078125" xlink:href="#e"/>
  <use x="65.15625" y="548.078125" xlink:href="#b"/>
  <use y="552.234375" xlink:href="#r"/>
  <use x="1.808594" y="552.234375" xlink:href="#b"/>
  <use x="3.859375" y="552.234375" xlink:href="#c"/>
  <use x="6.714844" y="552.234375" xlink:href="#g"/>
  <use x="12.496094" y="552.234375" xlink:href="#d"/>
  <use x="14.480469" y="552.234375" xlink:href="#i"/>
  <use x="17.441406" y="552.234375" xlink:href="#a"/>
  <use x="21.707031" y="552.234375" xlink:href="#q"/>
  <use x="25.1875" y="552.234375" xlink:href="#c"/>
  <use x="28.042969" y="552.234375" xlink:href="#p"/>
  <use x="31.003906" y="552.234375" xlink:href="#h"/>
  <use x="35.410156" y="552.234375" xlink:href="#o"/>
  <use x="38.457031" y="552.234375" xlink:href="#b"/>
  <use x="40.507812" y="552.234375" xlink:href="#c"/>
  <use x="43.363281" y="552.234375" xlink:href="#n"/>
  <use x="44.789063" y="552.234375" xlink:href="#a"/>
  <use x="47.609375" y="552.234375" xlink:href="#j"/>
  <use x="50.074219" y="552.234375" xlink:href="#d"/>
 </g>
</svg>
