<?xml version="1.0" encoding="UTF-8"?>
<svg width="700pt" height="700pt" version="1.1" viewBox="0 0 700 700" xmlns="http://www.w3.org/2000/svg">
 <g>
  <path d="m227.5 245h-35v35h35z"/>
  <path d="m227.5 315h-35v35h35z"/>
  <path d="m297.5 245h-35v35h35z"/>
  <path d="m297.5 315h-35v35h35z"/>
  <path d="m367.5 245h-35v35h35z"/>
  <path d="m175 122.5c0-9.6641 7.8359-17.5 17.5-17.5h35c9.6641 0 17.5 7.8359 17.5 17.5s-7.8359 17.5-17.5 17.5h-35c-9.6641 0-17.5-7.8359-17.5-17.5z"/>
  <path d="m402.5 105c-9.6641 0-17.5 7.8359-17.5 17.5s7.8359 17.5 17.5 17.5h35c9.6641 0 17.5-7.8359 17.5-17.5s-7.8359-17.5-17.5-17.5z"/>
  <path d="m105 105c0-28.996 23.504-52.5 52.5-52.5h315c28.996 0 52.5 23.504 52.5 52.5v169.29c41.387 19.66 70 61.844 70 110.71 0 67.656-54.844 122.5-122.5 122.5-48.867 0-91.051-28.613-110.71-70h-204.29c-28.996 0-52.5-23.504-52.5-52.5zm453.25 262.5c-6.9609-34.285-33.965-61.289-68.25-68.25v68.25zm-103.25-68.25v85.75c0 4.6406 1.8438 9.0938 5.125 12.375s7.7344 5.125 12.375 5.125h85.75c-8.1094 39.938-43.418 70-85.75 70-48.324 0-87.5-39.176-87.5-87.5 0-42.332 30.062-77.641 70-85.75zm17.5-36.75c5.9414 0 11.785 0.42188 17.5 1.2422v-71.242h-350v192.5c0 9.6641 7.8359 17.5 17.5 17.5h193.74c-0.82031-5.7148-1.2422-11.559-1.2422-17.5 0-67.656 54.844-122.5 122.5-122.5zm-315-175c-9.6641 0-17.5 7.8359-17.5 17.5v52.5h350v-52.5c0-9.6641-7.8359-17.5-17.5-17.5z" fill-rule="evenodd"/>
 </g>
</svg>
